{
    "asset" : {
        "generator" : "Khronos glTF Blender I/O v3.2.43",
        "version" : "2.0"
    },
    "scene" : 0,
    "scenes" : [
        {
            "name" : "Scene",
            "nodes" : [
                4
            ]
        }
    ],
    "nodes" : [
        {
            "mesh" : 0,
            "name" : "BotellaCristal"
        },
        {
            "mesh" : 1,
            "name" : "Etiqueta"
        },
        {
            "mesh" : 2,
            "name" : "Liquido"
        },
        {
            "mesh" : 3,
            "name" : "Tapa"
        },
        {
            "children" : [
                0,
                1,
                2,
                3
            ],
            "name" : "JohnnyWalkerBotella",
            "rotation" : [
                0.7071068286895752,
                0,
                0,
                0.7071067094802856
            ],
            "scale" : [
                0.009999999776482582,
                0.009999999776482582,
                0.009999999776482582
            ]
        }
    ],
    "animations" : [
        {
            "channels" : [
                {
                    "sampler" : 0,
                    "target" : {
                        "node" : 4,
                        "path" : "translation"
                    }
                },
                {
                    "sampler" : 1,
                    "target" : {
                        "node" : 4,
                        "path" : "rotation"
                    }
                },
                {
                    "sampler" : 2,
                    "target" : {
                        "node" : 4,
                        "path" : "scale"
                    }
                }
            ],
            "name" : "JohnnyWalkerBotella|Take 001|BaseLayer",
            "samplers" : [
                {
                    "input" : 20,
                    "interpolation" : "LINEAR",
                    "output" : 21
                },
                {
                    "input" : 20,
                    "interpolation" : "LINEAR",
                    "output" : 22
                },
                {
                    "input" : 20,
                    "interpolation" : "LINEAR",
                    "output" : 23
                }
            ]
        }
    ],
    "materials" : [
        {
            "alphaMode" : "BLEND",
            "doubleSided" : true,
            "name" : "JWBotellaCristal",
            "pbrMetallicRoughness" : {
                "baseColorTexture" : {
                    "index" : 0
                },
                "metallicFactor" : 0.7662337422370911,
                "roughnessFactor" : 0.6000000238418579
            }
        },
        {
            "alphaMode" : "BLEND",
            "doubleSided" : true,
            "name" : "JWBotellaSelloBoquilla",
            "pbrMetallicRoughness" : {
                "baseColorTexture" : {
                    "index" : 1
                },
                "metallicFactor" : 0.5,
                "roughnessFactor" : 0.7487671971321106
            }
        },
        {
            "doubleSided" : true,
            "name" : "JWBotellaEtiqueta",
            "pbrMetallicRoughness" : {
                "baseColorTexture" : {
                    "index" : 2
                },
                "metallicFactor" : 0,
                "roughnessFactor" : 0.5527864098548889
            }
        },
        {
            "doubleSided" : true,
            "name" : "JWBOtellaLiquido",
            "pbrMetallicRoughness" : {
                "baseColorFactor" : [
                    0.15389999747276306,
                    0.025599999353289604,
                    0,
                    1
                ],
                "metallicFactor" : 0.5,
                "roughnessFactor" : 0.5527864098548889
            }
        }
    ],
    "meshes" : [
        {
            "name" : "Mesh.001",
            "primitives" : [
                {
                    "attributes" : {
                        "POSITION" : 0,
                        "NORMAL" : 1,
                        "TEXCOORD_0" : 2
                    },
                    "indices" : 3,
                    "material" : 0
                },
                {
                    "attributes" : {
                        "POSITION" : 4,
                        "NORMAL" : 5,
                        "TEXCOORD_0" : 6
                    },
                    "indices" : 7,
                    "material" : 1
                }
            ]
        },
        {
            "name" : "Mesh",
            "primitives" : [
                {
                    "attributes" : {
                        "POSITION" : 8,
                        "NORMAL" : 9,
                        "TEXCOORD_0" : 10
                    },
                    "indices" : 11,
                    "material" : 2
                }
            ]
        },
        {
            "name" : "Mesh.002",
            "primitives" : [
                {
                    "attributes" : {
                        "POSITION" : 12,
                        "NORMAL" : 13,
                        "TEXCOORD_0" : 14
                    },
                    "indices" : 15,
                    "material" : 3
                }
            ]
        },
        {
            "name" : "Mesh.003",
            "primitives" : [
                {
                    "attributes" : {
                        "POSITION" : 16,
                        "NORMAL" : 17,
                        "TEXCOORD_0" : 18
                    },
                    "indices" : 19,
                    "material" : 1
                }
            ]
        }
    ],
    "textures" : [
        {
            "sampler" : 0,
            "source" : 0
        },
        {
            "sampler" : 0,
            "source" : 1
        },
        {
            "sampler" : 0,
            "source" : 2
        }
    ],
    "images" : [
        {
            "bufferView" : 4,
            "mimeType" : "image/png",
            "name" : "file2"
        },
        {
            "bufferView" : 9,
            "mimeType" : "image/png",
            "name" : "file5-file5"
        },
        {
            "bufferView" : 14,
            "mimeType" : "image/png",
            "name" : "file1"
        }
    ],
    "accessors" : [
        {
            "bufferView" : 0,
            "componentType" : 5126,
            "count" : 1335,
            "max" : [
                4.656594753265381,
                4.391186237335205,
                -0.10368156433105469
            ],
            "min" : [
                -3.3434054851531982,
                -3.608813762664795,
                -29.068965911865234
            ],
            "type" : "VEC3"
        },
        {
            "bufferView" : 1,
            "componentType" : 5126,
            "count" : 1335,
            "type" : "VEC3"
        },
        {
            "bufferView" : 2,
            "componentType" : 5126,
            "count" : 1335,
            "type" : "VEC2"
        },
        {
            "bufferView" : 3,
            "componentType" : 5123,
            "count" : 6912,
            "type" : "SCALAR"
        },
        {
            "bufferView" : 5,
            "componentType" : 5126,
            "count" : 825,
            "max" : [
                2.5610439777374268,
                2.2843050956726074,
                -26.07848358154297
            ],
            "min" : [
                -1.2276803255081177,
                -1.5044220685958862,
                -29.063640594482422
            ],
            "type" : "VEC3"
        },
        {
            "bufferView" : 6,
            "componentType" : 5126,
            "count" : 825,
            "type" : "VEC3"
        },
        {
            "bufferView" : 7,
            "componentType" : 5126,
            "count" : 825,
            "type" : "VEC2"
        },
        {
            "bufferView" : 8,
            "componentType" : 5123,
            "count" : 4608,
            "type" : "SCALAR"
        },
        {
            "bufferView" : 10,
            "componentType" : 5126,
            "count" : 918,
            "max" : [
                4.730538845062256,
                4.446832656860352,
                -2.6203536987304688
            ],
            "min" : [
                -3.433774709701538,
                -0.38547003269195557,
                -19.276660919189453
            ],
            "type" : "VEC3"
        },
        {
            "bufferView" : 11,
            "componentType" : 5126,
            "count" : 918,
            "type" : "VEC3"
        },
        {
            "bufferView" : 12,
            "componentType" : 5126,
            "count" : 918,
            "type" : "VEC2"
        },
        {
            "bufferView" : 13,
            "componentType" : 5123,
            "count" : 4692,
            "type" : "SCALAR"
        },
        {
            "bufferView" : 15,
            "componentType" : 5126,
            "count" : 958,
            "max" : [
                4.0264058113098145,
                3.7609975337982178,
                -0.5959968566894531
            ],
            "min" : [
                -2.7132158279418945,
                -2.9786250591278076,
                -23.590608596801758
            ],
            "type" : "VEC3"
        },
        {
            "bufferView" : 16,
            "componentType" : 5126,
            "count" : 958,
            "type" : "VEC3"
        },
        {
            "bufferView" : 17,
            "componentType" : 5126,
            "count" : 958,
            "type" : "VEC2"
        },
        {
            "bufferView" : 18,
            "componentType" : 5123,
            "count" : 5184,
            "type" : "SCALAR"
        },
        {
            "bufferView" : 19,
            "componentType" : 5126,
            "count" : 1932,
            "max" : [
                2.635591506958008,
                2.3464560508728027,
                -29.07293701171875
            ],
            "min" : [
                -1.2774343490600586,
                -1.566572904586792,
                -32.235496520996094
            ],
            "type" : "VEC3"
        },
        {
            "bufferView" : 20,
            "componentType" : 5126,
            "count" : 1932,
            "type" : "VEC3"
        },
        {
            "bufferView" : 21,
            "componentType" : 5126,
            "count" : 1932,
            "type" : "VEC2"
        },
        {
            "bufferView" : 22,
            "componentType" : 5123,
            "count" : 10944,
            "type" : "SCALAR"
        },
        {
            "bufferView" : 23,
            "componentType" : 5126,
            "count" : 100,
            "max" : [
                4.208333333333333
            ],
            "min" : [
                0.08333333333333333
            ],
            "type" : "SCALAR"
        },
        {
            "bufferView" : 24,
            "componentType" : 5126,
            "count" : 100,
            "type" : "VEC3"
        },
        {
            "bufferView" : 25,
            "componentType" : 5126,
            "count" : 100,
            "type" : "VEC4"
        },
        {
            "bufferView" : 26,
            "componentType" : 5126,
            "count" : 100,
            "type" : "VEC3"
        }
    ],
    "bufferViews" : [
        {
            "buffer" : 0,
            "byteLength" : 16020,
            "byteOffset" : 0
        },
        {
            "buffer" : 0,
            "byteLength" : 16020,
            "byteOffset" : 16020
        },
        {
            "buffer" : 0,
            "byteLength" : 10680,
            "byteOffset" : 32040
        },
        {
            "buffer" : 0,
            "byteLength" : 13824,
            "byteOffset" : 42720
        },
        {
            "buffer" : 0,
            "byteLength" : 124208,
            "byteOffset" : 56544
        },
        {
            "buffer" : 0,
            "byteLength" : 9900,
            "byteOffset" : 180752
        },
        {
            "buffer" : 0,
            "byteLength" : 9900,
            "byteOffset" : 190652
        },
        {
            "buffer" : 0,
            "byteLength" : 6600,
            "byteOffset" : 200552
        },
        {
            "buffer" : 0,
            "byteLength" : 9216,
            "byteOffset" : 207152
        },
        {
            "buffer" : 0,
            "byteLength" : 1058215,
            "byteOffset" : 216368
        },
        {
            "buffer" : 0,
            "byteLength" : 11016,
            "byteOffset" : 1274584
        },
        {
            "buffer" : 0,
            "byteLength" : 11016,
            "byteOffset" : 1285600
        },
        {
            "buffer" : 0,
            "byteLength" : 7344,
            "byteOffset" : 1296616
        },
        {
            "buffer" : 0,
            "byteLength" : 9384,
            "byteOffset" : 1303960
        },
        {
            "buffer" : 0,
            "byteLength" : 628906,
            "byteOffset" : 1313344
        },
        {
            "buffer" : 0,
            "byteLength" : 11496,
            "byteOffset" : 1942252
        },
        {
            "buffer" : 0,
            "byteLength" : 11496,
            "byteOffset" : 1953748
        },
        {
            "buffer" : 0,
            "byteLength" : 7664,
            "byteOffset" : 1965244
        },
        {
            "buffer" : 0,
            "byteLength" : 10368,
            "byteOffset" : 1972908
        },
        {
            "buffer" : 0,
            "byteLength" : 23184,
            "byteOffset" : 1983276
        },
        {
            "buffer" : 0,
            "byteLength" : 23184,
            "byteOffset" : 2006460
        },
        {
            "buffer" : 0,
            "byteLength" : 15456,
            "byteOffset" : 2029644
        },
        {
            "buffer" : 0,
            "byteLength" : 21888,
            "byteOffset" : 2045100
        },
        {
            "buffer" : 0,
            "byteLength" : 400,
            "byteOffset" : 2066988
        },
        {
            "buffer" : 0,
            "byteLength" : 1200,
            "byteOffset" : 2067388
        },
        {
            "buffer" : 0,
            "byteLength" : 1600,
            "byteOffset" : 2068588
        },
        {
            "buffer" : 0,
            "byteLength" : 1200,
            "byteOffset" : 2070188
        }
    ],
    "samplers" : [
        {
            "magFilter" : 9729,
            "minFilter" : 9987
        }
    ],
    "buffers" : [
        {
            "byteLength" : 2071388,
            "uri" : "data:application/octet-stream;base64,"
        }
    ]
}
